Coordinates
version=1
nRows=37
nColumns=34
inDegrees=no

Units are S.I. units (second, meters, Newtons, ...)
If the header above contains a line with 'inDegrees', this indicates whether rotational values are in degrees (yes) or radians (no).

endheader
time	pelvis_tilt	pelvis_list	pelvis_rotation	pelvis_tx	pelvis_ty	pelvis_tz	hip_flexion_r	hip_adduction_r	hip_rotation_r	knee_angle_r	ankle_angle_r	subtalar_angle_r	mtp_angle_r	hip_flexion_l	hip_adduction_l	hip_rotation_l	knee_angle_l	ankle_angle_l	subtalar_angle_l	mtp_angle_l	lumbar_extension	lumbar_bending	lumbar_rotation	arm_flex_r	arm_add_r	arm_rot_r	elbow_flex_r	pro_sup_r	arm_flex_l	arm_add_l	arm_rot_l	elbow_flex_l	pro_sup_l
1.34	-0.143272	0.0462799	-0.0615907	-0.528117	1.15298	-0.589332	0.596901	-0.179017	-0.21865	0.269606	-0.481942	0.189251	0	0.585112	-0.114187	-0.29547	0.17924	-0.518039	0.13021	0	-0.249764	0.00554574	-0.0577995	1.31088	-0.916267	1.01696	1.48673	1.79926	0.902958	-0.923185	0.480741	1.29421	2.09
1.35	-0.138946	0.0451318	-0.0651819	-0.514835	1.13363	-0.589348	0.599211	-0.17877	-0.221687	0.26297	-0.496867	0.196812	0	0.584428	-0.1188	-0.305764	0.175866	-0.529205	0.153186	0	-0.245802	0.00903323	-0.0570158	1.32647	-0.949762	1.05095	1.52077	1.78759	0.881092	-0.973213	0.485496	1.31755	2.09
1.36	-0.13462	0.0436764	-0.067056	-0.501321	1.11327	-0.589647	0.600477	-0.178878	-0.221594	0.258649	-0.510707	0.202835	0	0.584139	-0.122455	-0.309355	0.176875	-0.5409	0.173451	0	-0.241509	0.0136967	-0.0601862	1.34351	-0.983131	1.08314	1.55498	1.77247	0.848224	-1.02931	0.47856	1.34567	2.09
1.37	-0.129949	0.0413992	-0.0667585	-0.487669	1.09191	-0.59031	0.60243	-0.179877	-0.220024	0.260456	-0.524692	0.207626	0	0.584602	-0.125046	-0.302107	0.183016	-0.552475	0.18545	0	-0.238008	0.0205031	-0.0703885	1.36616	-1.01347	1.11831	1.58819	1.75613	0.789632	-1.09404	0.443829	1.3817	2.09
1.38	-0.124437	0.038076	-0.0658301	-0.474055	1.06966	-0.591177	0.605696	-0.180585	-0.214974	0.270701	-0.53617	0.208082	0	0.586055	-0.127764	-0.284991	0.196631	-0.558459	0.18774	0	-0.237403	0.02927	-0.0893225	1.39813	-1.03739	1.16011	1.61917	1.73681	0.67749	-1.16916	0.352226	1.42924	2.09
1.39	-0.118398	0.0337996	-0.0660627	-0.460417	1.04645	-0.591944	0.610815	-0.179666	-0.205855	0.288687	-0.548901	0.205021	0	0.589268	-0.131779	-0.262297	0.219764	-0.561019	0.181486	0	-0.240367	0.0390756	-0.118971	1.43796	-1.05033	1.2057	1.64563	1.71816	0.446844	-1.25058	0.139954	1.491	2.09
1.4	-0.112338	0.0286073	-0.0671852	-0.446508	1.02198	-0.5925	0.618937	-0.17674	-0.193995	0.310525	-0.582528	0.198569	0	0.59528	-0.136507	-0.233613	0.250186	-0.581336	0.166436	0	-0.246114	0.0490642	-0.162376	1.47928	-1.04843	1.24895	1.66568	1.6953	-0.0292651	-1.30941	-0.316903	1.56525	2.09
1.41	-0.106112	0.0232976	-0.0683836	-0.432841	0.996438	-0.592952	0.63137	-0.172285	-0.17917	0.34021	-0.61825	0.184895	0	0.605879	-0.140514	-0.199254	0.289659	-0.605891	0.149029	0	-0.254861	0.0565795	-0.206716	1.50887	-1.05155	1.27697	1.68671	1.67831	-0.616122	-1.29103	-0.882791	1.63558	2.09
1.42	-0.102191	0.0185301	-0.0699132	-0.420728	0.970581	-0.593447	0.653924	-0.167596	-0.162233	0.403037	-0.561032	0.169015	0	0.628481	-0.144346	-0.166717	0.357629	-0.549365	0.139775	0	-0.26538	0.0604553	-0.234667	1.51857	-1.08311	1.28187	1.71723	1.66963	-0.985816	-1.22131	-1.23306	1.6898	2.08801
1.43	-0.102928	0.0154423	-0.0713647	-0.409831	0.944049	-0.593882	0.694103	-0.165427	-0.141589	0.524748	-0.345008	0.159324	0	0.66981	-0.148231	-0.143943	0.476284	-0.343862	0.138652	0	-0.272969	0.0604549	-0.244035	1.50356	-1.14658	1.26245	1.75794	1.66271	-1.18689	-1.1484	-1.41387	1.73146	2.06359
1.44	-0.105431	0.0137278	-0.0722259	-0.398234	0.916166	-0.593986	0.741788	-0.163142	-0.112726	0.674939	-0.0648229	0.134315	0	0.720557	-0.152811	-0.130246	0.625847	-0.0656107	0.127118	0	-0.276417	0.0574926	-0.23736	1.44999	-1.23997	1.21071	1.80806	1.65619	-1.31126	-1.08647	-1.51193	1.76494	2.0185
1.45	-0.112255	0.0128254	-0.072597	-0.386544	0.888219	-0.593816	0.791293	-0.156122	-0.0759323	0.805732	0.145825	0.0676623	0	0.776123	-0.157725	-0.116291	0.764985	0.145485	0.0818275	0	-0.276951	0.053434	-0.213979	1.27463	-1.36039	1.04215	1.86593	1.6524	-1.38542	-1.0406	-1.55839	1.78923	1.97585
1.46	-0.13454	0.0133404	-0.0731422	-0.376966	0.861454	-0.593477	0.855331	-0.149034	-0.0421105	0.909738	0.268255	-0.01665	0	0.850884	-0.164839	-0.0987166	0.885488	0.257454	0.0133034	0	-0.268197	0.0496594	-0.17659	0.472255	-1.46272	0.248511	1.92369	1.64683	-1.41422	-1.01001	-1.56195	1.80331	1.94381
1.47	-0.175297	0.0151602	-0.076163	-0.370169	0.836256	-0.592903	0.941347	-0.14341	-0.0119505	1.00046	0.325555	-0.0974637	0	0.949874	-0.175295	-0.0754778	0.995273	0.295086	-0.0691935	0	-0.245856	0.0471407	-0.137222	-0.608918	-1.39658	-0.820387	1.96535	1.64577	-1.40707	-0.979051	-1.52933	1.8067	1.92739
1.48	-0.216804	0.0173731	-0.0825195	-0.364432	0.813101	-0.592177	1.03259	-0.134995	0.0210715	1.08942	0.336667	-0.183026	0	1.05062	-0.186425	-0.0472178	1.09858	0.287611	-0.167556	0	-0.224326	0.0455864	-0.106771	-0.848942	-1.27473	-1.04231	1.98276	1.65919	-1.38292	-0.934481	-1.47471	1.80063	1.92615
1.49	-0.237491	0.0179763	-0.0900563	-0.357944	0.792708	-0.591511	1.10083	-0.123673	0.0557266	1.17702	0.327395	-0.280252	0	1.12373	-0.196875	-0.0185732	1.19388	0.264558	-0.275657	0	-0.224977	0.0451823	-0.0863703	-0.905534	-1.16586	-1.0769	1.97977	1.68183	-1.35526	-0.880231	-1.40921	1.78777	1.93079
1.5	-0.235575	0.0164579	-0.0949824	-0.350769	0.775043	-0.5912	1.13776	-0.116838	0.0851317	1.25774	0.322315	-0.372738	0	1.16295	-0.205917	0.00677754	1.27715	0.248004	-0.375228	0	-0.250187	0.0458651	-0.0764376	-0.910216	-1.07366	-1.05792	1.9617	1.70459	-1.32822	-0.82266	-1.33669	1.77156	1.93533
1.51	-0.226487	0.015027	-0.0962497	-0.344051	0.759014	-0.591391	1.15959	-0.117337	0.108771	1.32762	0.324799	-0.4486	0	1.18496	-0.212848	0.0266567	1.34613	0.244028	-0.456778	0	-0.28352	0.0466432	-0.0745498	-0.893959	-0.994353	-1.01617	1.93414	1.72826	-1.30003	-0.766818	-1.25706	1.75387	1.93641
1.52	-0.222774	0.0152265	-0.0962607	-0.338441	0.743609	-0.592056	1.18277	-0.121857	0.129481	1.38702	0.328988	-0.509434	0	1.20601	-0.218078	0.0413714	1.40276	0.248685	-0.525933	0	-0.311358	0.0472447	-0.0757504	-0.869418	-0.924073	-0.964597	1.90237	1.75211	-1.26711	-0.715025	-1.17071	1.73461	1.93454
1.53	-0.225633	0.0162768	-0.096863	-0.333839	0.728767	-0.593107	1.20967	-0.127671	0.148454	1.43802	0.336582	-0.557614	0	1.22991	-0.221536	0.055666	1.45128	0.25875	-0.586536	0	-0.332567	0.0486006	-0.0763301	-0.841874	-0.860085	-0.910483	1.87076	1.76883	-1.22672	-0.668308	-1.07913	1.71356	1.93343
1.54	-0.232412	0.0171773	-0.0976231	-0.329872	0.714722	-0.594361	1.23707	-0.133205	0.166735	1.48242	0.348625	-0.598384	0	1.25521	-0.223016	0.0742828	1.49515	0.281294	-0.610865	0	-0.34962	0.0512442	-0.075485	-0.812356	-0.800021	-0.859071	1.83874	1.81058	-1.17878	-0.627429	-0.984274	1.6923	1.92918
1.55	-0.242788	0.0174063	-0.0980813	-0.326306	0.701321	-0.595728	1.26495	-0.138155	0.184918	1.52217	0.375743	-0.610865	0	1.28287	-0.22331	0.0972412	1.53604	0.314459	-0.610865	0	-0.36201	0.0554565	-0.0731156	-0.782053	-0.743209	-0.810049	1.81115	1.83023	-1.12471	-0.591858	-0.889725	1.67077	1.93275
1.56	-0.257713	0.0171206	-0.0983408	-0.323212	0.68826	-0.597121	1.29638	-0.141852	0.203681	1.55899	0.405715	-0.610865	0	1.31567	-0.223368	0.122214	1.5748	0.343816	-0.610865	0	-0.368374	0.0603957	-0.0696782	-0.749272	-0.689939	-0.764548	1.78473	1.86195	-1.06752	-0.560434	-0.798798	1.65032	1.93748
1.57	-0.275625	0.0169834	-0.0979793	-0.320679	0.675573	-0.598505	1.33113	-0.144898	0.22376	1.5938	0.429868	-0.610865	0	1.35286	-0.222352	0.14831	1.61208	0.365129	-0.610865	0	-0.370974	0.0644242	-0.067364	-0.711326	-0.641381	-0.719075	1.76093	1.88725	-1.00933	-0.531898	-0.716174	1.63225	1.94157
1.58	-0.293699	0.0176453	-0.0972763	-0.318573	0.663518	-0.599786	1.36621	-0.146897	0.245773	1.6267	0.448942	-0.610865	0	1.39043	-0.219765	0.174415	1.64752	0.379738	-0.610865	0	-0.37357	0.0661521	-0.0673368	-0.666817	-0.597845	-0.67276	1.74075	1.90885	-0.950144	-0.50526	-0.645541	1.61899	1.94149
1.59	-0.3103	0.018874	-0.0976314	-0.316673	0.652294	-0.600882	1.39959	-0.147421	0.268293	1.65775	0.464331	-0.610865	0	1.425	-0.217251	0.199425	1.68052	0.393439	-0.610865	0	-0.378386	0.0659316	-0.066841	-0.618172	-0.557774	-0.629268	1.72616	1.93415	-0.88762	-0.481004	-0.586882	1.61224	1.93621
1.6	-0.325522	0.0204186	-0.0993268	-0.314921	0.641953	-0.601685	1.43131	-0.147397	0.289837	1.68706	0.476593	-0.610865	0	1.45574	-0.21579	0.222812	1.71045	0.410214	-0.610865	0	-0.385426	0.0644835	-0.0626557	-0.568418	-0.518432	-0.592805	1.71929	1.96332	-0.819038	-0.461142	-0.537278	1.61196	1.92875
1.61	-0.340267	0.0231249	-0.101177	-0.313476	0.63243	-0.60206	1.46198	-0.146734	0.311752	1.71416	0.487399	-0.610865	0	1.48347	-0.214469	0.243508	1.73651	0.429899	-0.610865	0	-0.393287	0.0607557	-0.0564058	-0.515712	-0.479138	-0.562236	1.71935	1.99272	-0.744665	-0.445919	-0.495332	1.61826	1.92381
1.62	-0.355035	0.0278679	-0.102314	-0.312453	0.623593	-0.602224	1.49195	-0.145023	0.335707	1.73865	0.498359	-0.610865	0	1.50907	-0.212251	0.260382	1.75874	0.45061	-0.610865	0	-0.400693	0.0540994	-0.0519557	-0.456705	-0.442114	-0.53404	1.72427	2.01964	-0.666134	-0.433309	-0.460958	1.63133	1.92462
1.63	-0.369218	0.034081	-0.102463	-0.31175	0.615379	-0.602648	1.52079	-0.144295	0.360501	1.76092	0.509023	-0.610865	0	1.53254	-0.208897	0.273656	1.77819	0.471389	-0.610865	0	-0.408026	0.0465708	-0.0490805	-0.392907	-0.408811	-0.509138	1.73444	2.04891	-0.581723	-0.42233	-0.431131	1.64933	1.93085
1.64	-0.382081	0.040242	-0.101345	-0.311224	0.607877	-0.603427	1.54756	-0.146527	0.383667	1.78125	0.518556	-0.610865	0	1.5538	-0.204649	0.28512	1.7956	0.490763	-0.610865	0	-0.416434	0.0403961	-0.0455927	-0.326493	-0.379338	-0.486962	1.75112	2.07166	-0.489017	-0.412558	-0.401296	1.6701	1.93629
1.65	-0.394385	0.0449318	-0.099227	-0.310894	0.601064	-0.604253	1.57216	-0.14981	0.404011	1.79919	0.527617	-0.610865	0	1.57463	-0.200444	0.297501	1.81165	0.505416	-0.610865	0	-0.425282	0.0359731	-0.0427956	-0.254299	-0.354418	-0.461608	1.7702	2.09	-0.390706	-0.401778	-0.370855	1.69285	1.93589
1.66	-0.407385	0.0473016	-0.0970428	-0.310842	0.594694	-0.604936	1.59537	-0.151075	0.42131	1.81455	0.536934	-0.610865	0	1.59726	-0.197519	0.312303	1.82713	0.513971	-0.610865	0	-0.432695	0.0332186	-0.043139	-0.17328	-0.334363	-0.425852	1.78859	2.09	-0.291304	-0.388286	-0.341519	1.71679	1.92645
1.67	-0.419921	0.0481495	-0.0952727	-0.310995	0.588721	-0.605447	1.61669	-0.150562	0.436474	1.82817	0.545808	-0.610865	0	1.62009	-0.196017	0.327512	1.84201	0.519107	-0.610865	0	-0.439201	0.031164	-0.0459553	-0.0857945	-0.316894	-0.383232	1.80441	2.09	-0.190369	-0.374106	-0.311559	1.73888	1.91062
1.68	-0.429137	0.0498295	-0.0933186	-0.311185	0.58347	-0.605756	1.6344	-0.150563	0.452042	1.84109	0.553085	-0.610865	0	1.63859	-0.194855	0.33929	1.85532	0.523296	-0.610865	0	-0.447936	0.0273932	-0.0489383	0.00374105	-0.299256	-0.33915	1.8184	2.09	-0.0834384	-0.362512	-0.275223	1.7552	1.89633
1.69	-0.434435	0.054233	-0.0897832	-0.311351	0.579206	-0.605952	1.64838	-0.152703	0.470271	1.85334	0.558422	-0.610865	0	1.65083	-0.192509	0.344859	1.8659	0.526753	-0.610865	0	-0.460154	0.0205119	-0.0519702	0.0932671	-0.280375	-0.294757	1.82961	2.09	0.0318388	-0.352493	-0.230022	1.76229	1.89677
1.7	-0.437494	0.060848	-0.0841835	-0.311531	0.575842	-0.606159	1.66003	-0.157141	0.490202	1.8644	0.562102	-0.610865	0	1.65847	-0.188693	0.344408	1.87332	0.529771	-0.610865	0	-0.474205	0.0115352	-0.0564728	0.182357	-0.260815	-0.247465	1.83634	2.09	0.152462	-0.339811	-0.179706	1.7598	1.92207
